<svg class="svg-icon" style="width: 1em; height: 1em;vertical-align: middle;fill: currentColor;overflow: hidden;" viewBox="0 0 1024 1024" version="1.1" xmlns="http://www.w3.org/2000/svg"><path d="M512 774c-17 0-30.8 13.8-30.8 30.8v92.4c0 17 13.8 30.8 30.8 30.8s30.8-13.8 30.8-30.8v-92.4c0-17-13.8-30.8-30.8-30.8z m0-678c-17 0-30.8 13.8-30.8 30.8v92.4c0 17 13.8 30.8 30.8 30.8s30.8-13.8 30.8-30.8V126.8c0-17-13.8-30.8-30.8-30.8zM250 512c0-17-13.8-30.8-30.8-30.8H126.8c-17 0-30.8 13.8-30.8 30.8s13.8 30.8 30.8 30.8h92.4c17 0 30.8-13.8 30.8-30.8z m647.2-30.8h-92.4c-17 0-30.8 13.8-30.8 30.8s13.8 30.8 30.8 30.8h92.4c17 0 30.8-13.8 30.8-30.8s-13.8-30.8-30.8-30.8zM305 688.2c-8.2 0-16 3.2-21.8 9l-65.4 65.4c-5.8 5.8-9 13.6-9 21.8s3.2 16 9 21.8c5.8 5.8 13.6 9 21.8 9 8.2 0 16-3.2 21.8-9l65.4-65.4c12-12 12-31.6 0-43.6-5.8-5.8-13.6-9-21.8-9z m414-352.4c8.2 0 16-3.2 21.8-9l65.4-65.4c5.8-5.8 9-13.6 9-21.8s-3.2-16-9-21.8c-5.8-5.8-13.6-9-21.8-9-8.2 0-16 3.2-21.8 9l-65.4 65.4c-5.8 5.8-9 13.6-9 21.8s3.2 16 9 21.8c5.8 5.8 13.6 9 21.8 9z m-457.6-118c-5.8-5.8-13.6-9-21.8-9-8.2 0-16 3.2-21.8 9-5.8 5.8-9 13.6-9 21.8 0 8.2 3.2 16 9 21.8l65.4 65.4c5.8 5.8 13.6 9 21.8 9 8.2 0 16-3.2 21.8-9 5.8-5.8 9-13.6 9-21.8s-3.2-16-9-21.8l-65.4-65.4z m479.4 479.4c-5.8-5.8-13.6-9-21.8-9-8.2 0-16 3.2-21.8 9-12 12-12 31.6 0 43.6l65.4 65.4c5.8 5.8 13.6 9 21.8 9 8.2 0 16-3.2 21.8-9 5.8-5.8 9-13.6 9-21.8s-3.2-16-9-21.8l-65.4-65.4zM512 320c-105.8 0-192 86.2-192 192s86.2 192 192 192 192-86.2 192-192-86.2-192-192-192z"  /></svg>